<?xml version="1.0" encoding="UTF-8" standalone="no"?>
<svg width="105px" height="106px" viewBox="0 0 105 106" version="1.1" xmlns="http://www.w3.org/2000/svg" xmlns:xlink="http://www.w3.org/1999/xlink" xmlns:sketch="http://www.bohemiancoding.com/sketch/ns">
    <!-- Generator: Sketch 3.2.2 (9983) - http://www.bohemiancoding.com/sketch -->
    <title>forum</title>
    <desc>Created with Sketch.</desc>
    <defs>
        <linearGradient x1="50%" y1="0%" x2="50%" y2="100%" id="linearGradient-1">
            <stop stop-color="#B4ED50" offset="0%"></stop>
            <stop stop-color="#429321" offset="100%"></stop>
        </linearGradient>
    </defs>
    <g id="Page-1" stroke="none" stroke-width="1" fill="none" fill-rule="evenodd" sketch:type="MSPage">
        <g id="Desktop" sketch:type="MSArtboardGroup" transform="translate(-658.000000, -1796.000000)" fill="url(#linearGradient-1)">
            <g id="5th" sketch:type="MSLayerGroup" transform="translate(203.000000, 1776.000000)">
                <g id="forum" transform="translate(455.000000, 20.000000)" sketch:type="MSShapeGroup">
                    <path d="M99.7524752,21.2 L89.2574257,21.2 L89.2574257,68.9 L21.039604,68.9 L21.039604,79.5 C21.039604,82.68 23.1386139,84.8 26.2871287,84.8 L84.009901,84.8 L105,106 L105,26.5 C105,23.32 102.90099,21.2 99.7524752,21.2 L99.7524752,21.2 Z M78.7623762,53 L78.7623762,5.3 C78.7623762,2.12 76.6633663,0 73.5148515,0 L5.2970297,0 C2.14851485,0 0.0495049505,2.12 0.0495049505,5.3 L0.0495049505,79.5 L21.039604,58.3 L73.5148515,58.3 C76.6633663,58.3 78.7623762,56.18 78.7623762,53 L78.7623762,53 Z" id="Shape"></path>
                </g>
            </g>
        </g>
    </g>
</svg>